<mxfile host="app.diagrams.net" modified="2024-03-17T14:55:47.038Z" agent="Mozilla/5.0 (Macintosh; Intel Mac OS X 10_15_7) AppleWebKit/537.36 (KHTML, like Gecko) Chrome/122.0.0.0 Safari/537.36" version="24.0.0" etag="XXt66MrZmbEjOWmnszEN" type="github">
  <diagram name="第 1 页" id="1XCP7jNMBcmsMrd_4nbx">
    <mxGraphModel>
      <root>
        <mxCell id="0" />
        <mxCell id="1" parent="0" />
      </root>
    </mxGraphModel>
  </diagram>
</mxfile>
